<svg height="2500" width="2500" xmlns="http://www.w3.org/2000/svg" viewBox="0 0 1200 1200"><path d="M0 0h1200v1200H0V0z" fill="#fefefe"/><path d="M950 134v234l-16 8c-21.883 11.655-42.43 24.783-62 40l-2.715 2.102C808.147 466.259 767.68 528.299 739 600H501c1.127-11.272 1.127-11.272 2.207-15.18.25-.91.5-1.82.759-2.757l.847-2.938c.3-1.057.602-2.115.913-3.204 10.393-35.741 23.124-70.655 39.406-104.134.848-1.747 1.69-3.496 2.533-5.245C555.374 450.565 563.858 435.197 573 420c.934-1.575 1.868-3.15 2.8-4.727a542.951 542.951 0 0 1 55.856-77.226 348.767 348.767 0 0 0 8.969-10.797c3.67-4.528 7.62-8.63 11.82-12.668a117.613 117.613 0 0 0 5.707-6.223c4.52-5.214 9.398-10.055 14.285-14.922l2.737-2.748c4.557-4.55 9.166-8.969 14.054-13.162 2.593-2.234 5.08-4.57 7.585-6.902 4.593-4.238 9.3-8.281 14.171-12.2a593.126 593.126 0 0 0 6.594-5.382c31.89-26.334 67.53-51.417 104.918-69.32a238.793 238.793 0 0 0 8.692-4.51c7.856-4.27 15.841-8.174 24-11.838l1.963-.885c24.73-11.105 50.049-20.759 75.995-28.624a496.264 496.264 0 0 0 5.7-1.767l2.677-.837 2.334-.74C946 134 946 134 950 134z" fill="#eb0f29"/><path d="M250 134h587c-2.121 2.121-3.782 2.959-6.488 4.215l-2.797 1.312-3.028 1.41C799.216 152.988 774.673 166.709 751 182l-1.834 1.184c-23.928 15.527-46.881 32.836-68.523 51.411a794.227 794.227 0 0 1-5.006 4.237c-14.239 12.01-27.518 24.958-40.7 38.106l-1.784 1.776C626.88 284.967 620.736 291.242 615 298a1251.412 1251.412 0 0 1-4.375 4.813c-4.733 5.246-9.183 10.695-13.625 16.187l-4.437 5.375c-15.708 18.175-15.708 18.175-28.378 38.345-1.194 2.203-2.266 3.654-4.185 5.28-4.106 1.062-8.15.914-12.37.842l-3.85.018a733.7 733.7 0 0 1-10.569-.048c-3.8-.03-7.6-.02-11.4-.014-6.584.003-13.167-.019-19.75-.058-9.519-.057-19.037-.075-28.556-.084-15.443-.015-30.886-.062-46.328-.128-15.002-.064-30.004-.114-45.005-.143l-2.83-.006-21.916-.042c-35.81-.066-71.617-.207-107.426-.337V134z" fill="#fe6d00"/><path d="M484 833h233v233H484V833z" fill="#eb0f29"/><path d="M824 637h49c0 11.203 0 11.203-3.063 15.5A76.555 76.555 0 0 0 867 657l1 2 1.215-1.723C876.33 647.612 885.996 639.605 898 637c13.25-.816 26.633-.642 37.297 8.387L937 647l1.64 1.52c10.953 11.367 11.685 28.253 11.587 43.155v3.612c0 3.89-.016 7.78-.032 11.67-.005 2.717-.006 5.433-.008 8.15-.006 6.389-.023 12.777-.043 19.166-.022 7.282-.033 14.564-.043 21.846-.021 14.96-.058 29.92-.101 44.881h-45l-.044-10.753a16817 16817 0 0 0-.192-35.144 8137.96 8137.96 0 0 1-.11-21.31c-.026-6.854-.067-13.708-.117-20.561-.017-2.617-.028-5.234-.035-7.85-.01-3.661-.037-7.322-.07-10.982l.005-3.29c.009-7.09.009-7.09-3.437-13.11-5.217-3.026-10.013-3.917-16-3-6.659 2.116-10.75 5.918-14.113 12.02-1.354 4.55-1.196 9.013-1.206 13.737l-.03 3.283c-.031 3.577-.048 7.153-.065 10.73-.019 2.481-.038 4.963-.059 7.444-.051 6.528-.09 13.056-.128 19.585-.039 6.663-.091 13.325-.141 19.988-.097 13.071-.18 26.142-.258 39.213h-45V637z" fill="#147351"/><path d="M572 637h46c3.37 16.848 3.37 16.848 4.324 22.906l.325 2.039c.23 1.438.458 2.877.685 4.317a2462.35 2462.35 0 0 0 5.799 35.18l.548 3.18a4785.58 4785.58 0 0 0 2.167 12.497c2.224 12.696 4.355 25.198 4.215 38.131l-.028 3.328L636 761h2l.028-1.778c.056-2.804.14-5.606.222-8.41l.043-2.79c.242-7.3 1.423-14.204 2.853-21.34 1.919-9.708 3.506-19.465 5.088-29.233l.431-2.654c.882-5.44 1.76-10.881 2.636-16.322.89-5.517 1.783-11.033 2.676-16.549 1.344-8.307 2.683-16.616 4.023-24.924h46c-.636 5.089-1.298 9.8-2.383 14.762l-.837 3.842-.905 4.083-.469 2.132c-2.42 11.001-5.02 21.951-7.71 32.89-2.601 10.684-4.913 21.421-7.204 32.175a1121.65 1121.65 0 0 1-7.975 34.656c-2.432 9.922-4.588 19.89-6.652 29.894l-.7 3.363c-.203.983-.404 1.966-.612 2.98C666 800 666 800 665 801c-1.75.094-3.502.117-5.254.114h-3.397l-3.697-.016-3.762-.005c-3.306-.004-6.612-.013-9.918-.024-3.372-.01-6.743-.015-10.115-.02-6.619-.011-13.238-.028-19.857-.049l-.592-2.61c-.946-4.172-1.895-8.344-2.846-12.515l-.538-2.363c-2.053-9.008-4.13-18.01-6.278-26.996l-.56-2.346-1.123-4.69a1746.98 1746.98 0 0 1-9.684-42.876c-2.45-11.505-5.112-22.934-7.93-34.355-2.856-11.683-5.17-23.44-7.449-35.249z" fill="#157351"/><path d="M715 637h93v34h-47v30h47v32h-47v36h47v33h-93V637zM466 637h93v34h-47v30h47v32h-47v36h47v33h-93V637z" fill="#177453"/><path d="M250 637h93v34h-47v30h47v32h-48v36h48v32h-93V637z" fill="#167452"/><path d="M358 637h45v129h48v35h-93V637z" fill="#147351"/><path d="M793.375 836c7.155 4.142 12.01 9.765 14.184 17.793 1.674 8.371-.366 14.833-4.559 22.207-4.775 5.674-10.565 9.545-18.047 10.313-8.67.32-14.032-1.03-20.64-6.563-6.487-7.714-8.684-13.637-8.598-23.707.41-4.378 1.857-7.434 4.285-11.043l1.75-2.688c8.372-8.604 20.48-11.414 31.625-6.312z" fill="#f2f7f6"/><path d="M793.375 836c7.155 4.142 12.01 9.765 14.184 17.793 1.674 8.371-.366 14.833-4.559 22.207-4.775 5.674-10.565 9.545-18.047 10.313-8.67.32-14.032-1.03-20.64-6.563-6.487-7.714-8.684-13.637-8.598-23.707.41-4.378 1.857-7.434 4.285-11.043l1.75-2.688c8.372-8.604 20.48-11.414 31.625-6.312zm-27.25 10c-4.504 6.359-4.785 11.266-4.125 19 1.31 5.297 4.21 10.06 8.719 13.195 5.019 2.848 9.57 3.783 15.281 2.805 7.224-2.313 11.193-6.698 14.813-13.313 1.914-5.944 2.188-11.083-.375-16.875-2.829-5.024-6.875-8.328-11.813-11.187-8.698-2.071-16.49-.549-22.5 6.375z" fill="#1f7957"/><path d="M773 846l7.25-.25 2.263-.11c3.338-.056 5.194.154 7.944 2.09 1.73 2.544 2.058 3.79 1.98 6.832l-.003 2.317c-.53 2.595-1.35 3.527-3.434 5.121h-2l6 12h-7l-1.023-1.934-1.352-2.504-1.336-2.496c-1.123-2.2-1.123-2.2-3.289-3.066v10h-6v-28z" fill="#1d7856"/><path d="M777 846c9.9-.614 9.9-.614 13.688 1.5 1.915 3.649 1.585 6.408 1.312 10.5l-5-1-1-6-10-2 1-3z" fill="#197553"/><path d="M778 850c5.438-.363 5.438-.363 7.938 1.25 1.062 1.75 1.062 1.75.875 3.813C786 857 786 857 784 859c-3.125.125-3.125.125-6 0v-9z" fill="#dceae5"/><path d="M790 881l-7 2v3l-7-1-1-4c1.75-.196 3.5-.381 5.25-.563l2.953-.316c2.56-.11 4.378.102 6.797.879z" fill="#13734f"/><path d="M688 282l-.563 1.875c-.674 2.167-.674 2.167.563 4.125l-3.25.313c-3.608.661-5.114 1.262-7.75 3.687l-2-1a1325.69 1325.69 0 0 1 3.875-3.938l2.18-2.214C683.618 282.413 684.42 282 688 282z" fill="#ed1d38"/><path d="M752.25 228.332L754 229l-1.875.75c-2.28 1.067-2.28 1.067-3.063 3.312-.35.64-.7 1.28-1.062 1.938-2.625.75-2.625.75-5 1l1 2h-6c2.476-2.682 5.155-5.035 8-7.313l2-1.613c2-1.074 2-1.074 4.25-.742z" fill="#ec1c36"/><path d="M524 521h1c.108 1.936.186 3.874.25 5.813l.14 3.269C525 533 525 533 523.11 534.887 521 536 521 536 519 536c3.075-10.558 3.075-10.558 5-15z" fill="#ed1a35"/><path d="M862 420l2 2a320.06 320.06 0 0 1-4.688 4.563l-2.636 2.566C854 431 854 431 851.168 430.777L849 430l1-2 2 1v-2l3-2 2-2c2.625-.625 2.625-.625 5-1v-2z" fill="#ec1a36"/><path d="M638 330l1 2a135.916 135.916 0 0 1-3 7h-2v2l-6 2c3.267-4.389 6.549-8.753 10-13z" fill="#ed1c37"/><path d="M563 437c2 3 2 3 1.625 5.688L564 445h-2l-1.5 2.5-1.5 2.5h-2c1.413-4.827 3.43-8.716 6-13z" fill="#eb1e38"/><path d="M919 144c-1.25 2-1.25 2-3 4h-4v2l-6 1 3-1v-2h2l1-3c4.443-2.278 4.443-2.278 7-1z" fill="#ec1c37"/><path d="M786 856l6 2c-1.375 2-1.375 2-3 4h-2l-1 2v-5l-2-1z" fill="#257c5c"/><path d="M784 859h2l1 8-5-1v-3h2l-1-3z" fill="#11734f"/><path d="M515 546l1 2 3 1v2l-2 1-2 3-2-1z" fill="#ec1e38"/><path d="M507 572l4 4-2 1-1 3-3 1z" fill="#ec243d"/><path d="M889 396l3 4-5 5-2-2h2l-1-3h2z" fill="#ec1632"/><path d="M556 450l3 6h-2l-1 2-4 1z" fill="#ed1935"/><path d="M666 300c0 3.668-.79 5.105-3 8-2.688.813-2.688.813-5 1 .957-1.126 1.916-2.25 2.875-3.375l1.617-1.898A75.822 75.822 0 0 1 666 300z" fill="#ec2440"/><path d="M873 410l4 2-7 5-1-4 4-1v-2z" fill="#ed203a"/><path d="M923 377c2.007.287 4.009.619 6 1-2.386 1.892-4.072 3.024-7 4 0-4 0-4 1-5z" fill="#ed1833"/><path d="M730 243l2 1-2 3h-3v5l-2 1v-3l-2-1 7-6z" fill="#ed213c"/><path d="M871 652l2 1-5 7-2-1c1.25-3.653 1.671-4.78 5-7z" fill="#e8f3ee"/><path d="M763 872h3c2 3 2 3 1.625 5.188L767 879l-3-3-2 1 1-5z" fill="#177553"/><path d="M797 843l4 1v4h-3l-1-5z" fill="#12734f"/><path d="M792 852v6l-5-1c2.258-5 2.258-5 5-5z" fill="#11724d"/><path d="M589 395h2c-.564 3.27-1.5 4.826-4 7l-2-1a125.024 125.024 0 0 1 4-6z" fill="#ed1e3a"/><path d="M779 507l1 2h3l-1 5h-3l1-3-2-3z" fill="#ee1633"/><path d="M772.188 836.375L774 837v2c-2.375.625-2.375.625-5 1l-2-2c3-2 3-2 5.188-1.625z" fill="#227b5a"/><path d="M703 265l3 1-3 4-1-1-2 2c0-3 0-3 1.5-4.688L703 265z" fill="#ef203b"/></svg>